<svg width="64" height="64" viewBox="0 0 48 48" fill="none" xmlns="http://www.w3.org/2000/svg">
  <defs>
    <linearGradient id="bg" x1="8" y1="6" x2="39" y2="42" gradientUnits="userSpaceOnUse">
      <stop stop-color="#0F766E" />
      <stop offset="1" stop-color="#14B8A6" />
    </linearGradient>
    <linearGradient id="sheet" x1="16" y1="14" x2="33" y2="33" gradientUnits="userSpaceOnUse">
      <stop stop-color="#F8FAFC" />
      <stop offset="1" stop-color="#CCFBF1" />
    </linearGradient>
  </defs>
  <rect x="4" y="4" width="40" height="40" rx="14" fill="url(#bg)" />
  <path d="M17 14.5C17 13.6716 17.6716 13 18.5 13H28L33 18V31.5C33 32.3284 32.3284 33 31.5 33H18.5C17.6716 33 17 32.3284 17 31.5V14.5Z" fill="url(#sheet)" />
  <path d="M28 13V17C28 17.5523 28.4477 18 29 18H33" stroke="#0F766E" stroke-width="1.4" stroke-linecap="round" stroke-linejoin="round" />
  <path d="M20.5 21H29.5" stroke="#0F766E" stroke-width="1.7" stroke-linecap="round" />
  <path d="M20.5 25H25.5" stroke="#0F766E" stroke-width="1.7" stroke-linecap="round" />
  <path d="M21 29L24.4 25.6L27 28.2L31 24.2" stroke="#0F766E" stroke-width="2.2" stroke-linecap="round" stroke-linejoin="round" />
  <circle cx="31" cy="24.2" r="1.8" fill="#0F766E" />
</svg>
